<svg width="45" height="45" viewBox="0 0 45 45" fill="none" xmlns="http://www.w3.org/2000/svg">
<path d="M22.5 4.21875C17.6175 4.21875 13.0247 6.12 9.57375 9.57375C6.12281 13.0275 4.21875 17.6175 4.21875 22.5C4.21875 27.3825 6.12 31.9753 9.57375 35.4263C13.0275 38.8772 17.6175 40.7812 22.5 40.7812C27.3825 40.7812 31.9753 38.88 35.4263 35.4263C38.8772 31.9725 40.7812 27.3825 40.7812 22.5C40.7812 17.6175 38.88 13.0247 35.4263 9.57375C31.9725 6.12281 27.3825 4.21875 22.5 4.21875ZM22.5 0C28.4674 0 34.1903 2.37053 38.4099 6.5901C42.6295 10.8097 45 16.5326 45 22.5C45 28.4674 42.6295 34.1903 38.4099 38.4099C34.1903 42.6295 28.4674 45 22.5 45C16.5326 45 10.8097 42.6295 6.5901 38.4099C2.37053 34.1903 0 28.4674 0 22.5C0 16.5326 2.37053 10.8097 6.5901 6.5901C10.8097 2.37053 16.5326 0 22.5 0ZM19.6875 30.9375H25.3125V36.5625H19.6875V30.9375ZM19.6875 8.4375H25.3125V25.3125H19.6875V8.4375Z" fill="#6A6A6A"/>
</svg>
