<svg width="45" height="45" viewBox="0 0 45 45" fill="none" xmlns="http://www.w3.org/2000/svg">
<path d="M18.1266 32.8725V17.8706H16.3462C15.0712 18.5503 13.8389 19.3074 12.6562 20.1375V22.0922C13.7109 21.3694 15.3816 20.3484 16.1944 19.9069H16.2281V32.8725H18.1266V32.8725ZM21.4678 29.2022C21.6 31.0022 23.1384 33.1566 26.2575 33.1566C29.7956 33.1566 31.8825 30.1584 31.8825 25.0819C31.8825 19.6425 29.6859 17.5781 26.3897 17.5781C23.7853 17.5781 21.3356 19.4681 21.3356 22.6659C21.3356 25.9284 23.6531 27.6441 26.0494 27.6441C28.1475 27.6441 29.5088 26.5866 29.9391 25.4222H30.015C30.0037 29.1234 28.7184 31.5084 26.3447 31.5084C24.4772 31.5084 23.5097 30.2428 23.3916 29.2022H21.4678V29.2022ZM29.7731 22.6856C29.7731 24.6431 28.2009 26.0044 26.4431 26.0044C24.7528 26.0044 23.2256 24.9272 23.2256 22.6294C23.2256 20.3147 24.8625 19.2262 26.5106 19.2262C28.2909 19.2262 29.7731 20.3456 29.7731 22.6856Z" fill="#6A6A6A"/>
<path d="M9.84375 0C10.2167 0 10.5744 0.148158 10.8381 0.411881C11.1018 0.675604 11.25 1.03329 11.25 1.40625V2.8125H33.75V1.40625C33.75 1.03329 33.8982 0.675604 34.1619 0.411881C34.4256 0.148158 34.7833 0 35.1562 0C35.5292 0 35.8869 0.148158 36.1506 0.411881C36.4143 0.675604 36.5625 1.03329 36.5625 1.40625V2.8125H39.375C40.8668 2.8125 42.2976 3.40513 43.3525 4.46002C44.4074 5.51492 45 6.94566 45 8.4375V39.375C45 40.8668 44.4074 42.2976 43.3525 43.3525C42.2976 44.4074 40.8668 45 39.375 45H5.625C4.13316 45 2.70242 44.4074 1.64752 43.3525C0.592632 42.2976 0 40.8668 0 39.375V8.4375C0 6.94566 0.592632 5.51492 1.64752 4.46002C2.70242 3.40513 4.13316 2.8125 5.625 2.8125H8.4375V1.40625C8.4375 1.03329 8.58566 0.675604 8.84938 0.411881C9.1131 0.148158 9.47079 0 9.84375 0V0ZM2.8125 11.25V39.375C2.8125 40.1209 3.10882 40.8363 3.63626 41.3637C4.16371 41.8912 4.87908 42.1875 5.625 42.1875H39.375C40.1209 42.1875 40.8363 41.8912 41.3637 41.3637C41.8912 40.8363 42.1875 40.1209 42.1875 39.375V11.25H2.8125Z" fill="#6A6A6A"/>
</svg>
