<svg width="28" height="28" viewBox="0 0 28 28" fill="none" xmlns="http://www.w3.org/2000/svg">
<path d="M14 16.8C14.2769 16.8 14.5476 16.7179 14.7778 16.5641C15.008 16.4102 15.1875 16.1916 15.2934 15.9358C15.3994 15.6799 15.4271 15.3984 15.3731 15.1269C15.3191 14.8553 15.1857 14.6058 14.9899 14.4101C14.7942 14.2143 14.5447 14.0809 14.2731 14.0269C14.0016 13.9729 13.7201 14.0006 13.4642 14.1066C13.2084 14.2125 12.9898 14.392 12.8359 14.6222C12.6821 14.8524 12.6 15.1231 12.6 15.4C12.6 15.7713 12.7475 16.1274 13.0101 16.3899C13.2726 16.6525 13.6287 16.8 14 16.8ZM21 16.8C21.2769 16.8 21.5476 16.7179 21.7778 16.5641C22.008 16.4102 22.1875 16.1916 22.2934 15.9358C22.3994 15.6799 22.4271 15.3984 22.3731 15.1269C22.3191 14.8553 22.1857 14.6058 21.99 14.4101C21.7942 14.2143 21.5447 14.0809 21.2731 14.0269C21.0016 13.9729 20.7201 14.0006 20.4642 14.1066C20.2084 14.2125 19.9898 14.392 19.8359 14.6222C19.6821 14.8524 19.6 15.1231 19.6 15.4C19.6 15.7713 19.7475 16.1274 20.01 16.3899C20.2726 16.6525 20.6287 16.8 21 16.8ZM14 22.4C14.2769 22.4 14.5476 22.3179 14.7778 22.1641C15.008 22.0102 15.1875 21.7916 15.2934 21.5358C15.3994 21.2799 15.4271 20.9984 15.3731 20.7269C15.3191 20.4553 15.1857 20.2058 14.9899 20.01C14.7942 19.8143 14.5447 19.6809 14.2731 19.6269C14.0016 19.5729 13.7201 19.6006 13.4642 19.7066C13.2084 19.8125 12.9898 19.992 12.8359 20.2222C12.6821 20.4524 12.6 20.7231 12.6 21C12.6 21.3713 12.7475 21.7274 13.0101 21.99C13.2726 22.2525 13.6287 22.4 14 22.4ZM21 22.4C21.2769 22.4 21.5476 22.3179 21.7778 22.1641C22.008 22.0102 22.1875 21.7916 22.2934 21.5358C22.3994 21.2799 22.4271 20.9984 22.3731 20.7269C22.3191 20.4553 22.1857 20.2058 21.99 20.01C21.7942 19.8143 21.5447 19.6809 21.2731 19.6269C21.0016 19.5729 20.7201 19.6006 20.4642 19.7066C20.2084 19.8125 19.9898 19.992 19.8359 20.2222C19.6821 20.4524 19.6 20.7231 19.6 21C19.6 21.3713 19.7475 21.7274 20.01 21.99C20.2726 22.2525 20.6287 22.4 21 22.4ZM7 16.8C7.27689 16.8 7.54757 16.7179 7.7778 16.5641C8.00803 16.4102 8.18747 16.1916 8.29343 15.9358C8.39939 15.6799 8.42712 15.3984 8.3731 15.1269C8.31908 14.8553 8.18574 14.6058 7.98995 14.4101C7.79416 14.2143 7.5447 14.0809 7.27313 14.0269C7.00155 13.9729 6.72006 14.0006 6.46424 14.1066C6.20843 14.2125 5.98978 14.392 5.83594 14.6222C5.68211 14.8524 5.6 15.1231 5.6 15.4C5.6 15.7713 5.7475 16.1274 6.01005 16.3899C6.2726 16.6525 6.6287 16.8 7 16.8ZM23.8 2.8H22.4V1.4C22.4 1.0287 22.2525 0.672601 21.99 0.41005C21.7274 0.1475 21.3713 0 21 0C20.6287 0 20.2726 0.1475 20.01 0.41005C19.7475 0.672601 19.6 1.0287 19.6 1.4V2.8H8.4V1.4C8.4 1.0287 8.2525 0.672601 7.98995 0.41005C7.7274 0.1475 7.3713 0 7 0C6.6287 0 6.2726 0.1475 6.01005 0.41005C5.7475 0.672601 5.6 1.0287 5.6 1.4V2.8H4.2C3.08609 2.8 2.0178 3.2425 1.23015 4.03015C0.442499 4.8178 0 5.88609 0 7V23.8C0 24.9139 0.442499 25.9822 1.23015 26.7698C2.0178 27.5575 3.08609 28 4.2 28H23.8C24.9139 28 25.9822 27.5575 26.7698 26.7698C27.5575 25.9822 28 24.9139 28 23.8V7C28 5.88609 27.5575 4.8178 26.7698 4.03015C25.9822 3.2425 24.9139 2.8 23.8 2.8ZM25.2 23.8C25.2 24.1713 25.0525 24.5274 24.7899 24.7899C24.5274 25.0525 24.1713 25.2 23.8 25.2H4.2C3.8287 25.2 3.4726 25.0525 3.21005 24.7899C2.9475 24.5274 2.8 24.1713 2.8 23.8V11.2H25.2V23.8ZM25.2 8.4H2.8V7C2.8 6.6287 2.9475 6.2726 3.21005 6.01005C3.4726 5.7475 3.8287 5.6 4.2 5.6H23.8C24.1713 5.6 24.5274 5.7475 24.7899 6.01005C25.0525 6.2726 25.2 6.6287 25.2 7V8.4ZM7 22.4C7.27689 22.4 7.54757 22.3179 7.7778 22.1641C8.00803 22.0102 8.18747 21.7916 8.29343 21.5358C8.39939 21.2799 8.42712 20.9984 8.3731 20.7269C8.31908 20.4553 8.18574 20.2058 7.98995 20.01C7.79416 19.8143 7.5447 19.6809 7.27313 19.6269C7.00155 19.5729 6.72006 19.6006 6.46424 19.7066C6.20843 19.8125 5.98978 19.992 5.83594 20.2222C5.68211 20.4524 5.6 20.7231 5.6 21C5.6 21.3713 5.7475 21.7274 6.01005 21.99C6.2726 22.2525 6.6287 22.4 7 22.4Z" fill="black"/>
</svg>
