<svg width="45" height="45" viewBox="0 0 45 45" fill="none" xmlns="http://www.w3.org/2000/svg">
<path fill-rule="evenodd" clip-rule="evenodd" d="M4.62945 13.0669C4.76008 12.9359 4.91526 12.832 5.0861 12.7611C5.25695 12.6902 5.4401 12.6537 5.62507 12.6537C5.81004 12.6537 5.9932 12.6902 6.16404 12.7611C6.33489 12.832 6.49007 12.9359 6.6207 13.0669L22.5001 28.9491L38.3794 13.0669C38.5102 12.9361 38.6654 12.8324 38.8362 12.7616C39.0071 12.6909 39.1902 12.6545 39.3751 12.6545C39.56 12.6545 39.7431 12.6909 39.9139 12.7616C40.0847 12.8324 40.2399 12.9361 40.3707 13.0669C40.5014 13.1976 40.6052 13.3528 40.6759 13.5237C40.7467 13.6945 40.7831 13.8776 40.7831 14.0625C40.7831 14.2474 40.7467 14.4305 40.6759 14.6013C40.6052 14.7722 40.5014 14.9274 40.3707 15.0581L23.4957 31.9331C23.3651 32.0641 23.2099 32.168 23.039 32.2389C22.8682 32.3098 22.685 32.3463 22.5001 32.3463C22.3151 32.3463 22.1319 32.3098 21.9611 32.2389C21.7903 32.168 21.6351 32.0641 21.5044 31.9331L4.62945 15.0581C4.49849 14.9275 4.39459 14.7723 4.32369 14.6015C4.2528 14.4306 4.21631 14.2475 4.21631 14.0625C4.21631 13.8775 4.2528 13.6944 4.32369 13.5235C4.39459 13.3527 4.49849 13.1975 4.62945 13.0669V13.0669Z" fill="#6A6A6A"/>
</svg>
