<svg width="24" height="24" viewBox="0 0 24 24" fill="none" xmlns="http://www.w3.org/2000/svg">
<path d="M23.7605 2.36007C23.9136 2.51364 23.9996 2.72163 23.9996 2.93846C23.9996 3.1553 23.9136 3.36329 23.7605 3.51685L22.0516 5.22744L18.7746 1.95045L20.4835 0.239864C20.6372 0.0862793 20.8455 0 21.0627 0C21.28 0 21.4883 0.0862793 21.6419 0.239864L23.7605 2.35844V2.36007ZM20.8932 6.38421L17.6162 3.10723L6.45312 14.2719C6.36294 14.3621 6.29505 14.472 6.25486 14.5931L4.93587 18.5484C4.91195 18.6205 4.90856 18.6978 4.92606 18.7718C4.94357 18.8457 4.9813 18.9133 5.03502 18.967C5.08874 19.0207 5.15634 19.0584 5.23026 19.076C5.30419 19.0935 5.38153 19.0901 5.45364 19.0661L9.40896 17.7472C9.52982 17.7074 9.63977 17.6401 9.7301 17.5505L20.8932 6.38585V6.38421Z" fill="black"/>
<path fill-rule="evenodd" clip-rule="evenodd" d="M0 21.3011C0 21.9529 0.25894 22.578 0.719855 23.0389C1.18077 23.4999 1.80591 23.7588 2.45774 23.7588H20.4812C21.133 23.7588 21.7581 23.4999 22.219 23.0389C22.68 22.578 22.9389 21.9529 22.9389 21.3011V11.4701C22.9389 11.2528 22.8526 11.0444 22.6989 10.8908C22.5453 10.7372 22.3369 10.6509 22.1196 10.6509C21.9024 10.6509 21.694 10.7372 21.5404 10.8908C21.3867 11.0444 21.3004 11.2528 21.3004 11.4701V21.3011C21.3004 21.5183 21.2141 21.7267 21.0605 21.8804C20.9068 22.034 20.6984 22.1203 20.4812 22.1203H2.45774C2.24046 22.1203 2.03208 22.034 1.87844 21.8804C1.72481 21.7267 1.63849 21.5183 1.63849 21.3011V3.27764C1.63849 3.06036 1.72481 2.85198 1.87844 2.69834C2.03208 2.5447 2.24046 2.45839 2.45774 2.45839H13.1079C13.3252 2.45839 13.5336 2.37208 13.6872 2.21844C13.8409 2.0648 13.9272 1.85642 13.9272 1.63914C13.9272 1.42187 13.8409 1.21349 13.6872 1.05985C13.5336 0.90621 13.3252 0.819897 13.1079 0.819897H2.45774C1.80591 0.819897 1.18077 1.07884 0.719855 1.53975C0.25894 2.00067 0 2.6258 0 3.27764V21.3011Z" fill="black"/>
</svg>
