<svg width="48" height="45" viewBox="0 0 48 45" fill="none" xmlns="http://www.w3.org/2000/svg">
<path d="M14.8028 16.3395C14.5012 16.1102 14.0585 16.1534 13.8138 16.4363C13.5297 16.7646 13.1531 16.9454 12.7532 16.9454C12.3532 16.9454 11.9767 16.7646 11.6926 16.4363C11.448 16.1535 11.0051 16.1103 10.7036 16.3395C10.402 16.5688 10.3558 16.9839 10.6004 17.2667C11.1486 17.9004 11.9332 18.2638 12.7532 18.2638C13.5731 18.2638 14.3577 17.9004 14.906 17.2667C15.1506 16.9839 15.1044 16.5688 14.8028 16.3395Z" fill="#6A6A6A"/>
<path d="M9.54004 12.4266C9.15173 12.4266 8.83691 12.7218 8.83691 13.0858V13.839C8.83691 14.203 9.15173 14.4981 9.54004 14.4981C9.92836 14.4981 10.2432 14.203 10.2432 13.839V13.0858C10.2432 12.7218 9.92836 12.4266 9.54004 12.4266Z" fill="#6A6A6A"/>
<path d="M15.9668 12.4266C15.5785 12.4266 15.2637 12.7218 15.2637 13.0858V13.839C15.2637 14.203 15.5784 14.4981 15.9668 14.4981C16.3551 14.4981 16.6699 14.203 16.6699 13.839V13.0858C16.6699 12.7218 16.3551 12.4266 15.9668 12.4266Z" fill="#6A6A6A"/>
<path d="M38.1001 20.1051C37.7985 19.8758 37.3557 19.9191 37.1111 20.2019C36.827 20.5302 36.4503 20.7111 36.0505 20.7111C35.6506 20.7111 35.274 20.5302 34.9899 20.2019C34.7454 19.9192 34.3025 19.8758 34.0009 20.1051C33.6993 20.3344 33.6532 20.7495 33.8978 21.0323C34.4459 21.6661 35.2306 22.0294 36.0505 22.0294C36.8704 22.0294 37.655 21.666 38.2032 21.0323C38.4478 20.7495 38.4017 20.3344 38.1001 20.1051Z" fill="#6A6A6A"/>
<path d="M32.8374 16.1923C32.4491 16.1923 32.1343 16.4874 32.1343 16.8514V17.6046C32.1343 17.9686 32.4491 18.2638 32.8374 18.2638C33.2257 18.2638 33.5405 17.9686 33.5405 17.6046V16.8514C33.5405 16.4874 33.2257 16.1923 32.8374 16.1923Z" fill="#6A6A6A"/>
<path d="M39.2637 16.1923C38.8754 16.1923 38.5605 16.4874 38.5605 16.8514V17.6046C38.5605 17.9686 38.8753 18.2638 39.2637 18.2638C39.652 18.2638 39.9668 17.9686 39.9668 17.6046V16.8514C39.9668 16.4874 39.652 16.1923 39.2637 16.1923Z" fill="#6A6A6A"/>
<path d="M46.0433 29.2278L40.5348 27.1621C40.505 27.151 40.4775 27.1367 40.4495 27.123C44.2542 26.3114 46.0561 24.9542 46.1361 24.8928C46.3263 24.7466 46.4212 24.5179 46.3865 24.2897C46.3785 24.2375 45.5901 19.0043 45.5901 13.8391C45.5901 8.90748 41.3105 4.89534 36.0502 4.89534C30.7898 4.89534 26.5103 8.90739 26.5103 13.8391C26.5103 15.1903 26.4449 16.843 26.3384 18.4075L24.8034 19.1271L20.2977 17.0152C20.2848 17.0091 20.2712 17.0047 20.258 16.9994C20.4723 16.4138 20.6125 15.7963 20.6639 15.1555C21.6064 14.8825 22.2931 14.058 22.2931 13.0859C22.2931 12.4312 21.9811 11.8439 21.4898 11.4465V7.06071C21.4898 5.84913 20.8368 4.71551 19.766 4.03435C19.4032 2.77048 18.1919 1.88269 16.7699 1.88269H10.3431C6.85467 1.88269 4.01655 4.54342 4.01655 7.81385V11.4464C3.52521 11.8437 3.21321 12.4311 3.21321 13.0858C3.21321 14.0579 3.89993 14.8824 4.8424 15.1554C5.01997 17.3684 6.23647 19.3128 8.0333 20.5642V22.3862L2.21851 24.0216C0.891568 24.3949 0 25.5182 0 26.8171V34.1736C0 34.5377 0.314814 34.8328 0.703129 34.8328H0.803348V42.4582C0.803348 42.8222 1.11816 43.1174 1.50648 43.1174C1.89479 43.1174 2.20961 42.8222 2.20961 42.4582V34.8328H4.82009V42.4582C4.82009 42.8222 5.13491 43.1174 5.52322 43.1174C5.91153 43.1174 6.22635 42.8222 6.22635 42.4582V31.0921C6.22635 30.5139 6.0455 29.9541 5.7035 29.4731L4.50162 27.783C4.28618 27.48 3.84959 27.3983 3.52661 27.6001C3.20346 27.802 3.11617 28.2113 3.33161 28.5142L4.5335 30.2045C4.721 30.4682 4.82018 30.7751 4.82018 31.0921V33.5145H1.50648H1.40626V26.8171C1.40626 26.1049 1.89507 25.489 2.62277 25.2843L5.03656 24.6055C5.87713 27.9051 9.06943 30.314 12.7534 30.314C14.0768 30.314 15.3622 30.008 16.5131 29.4258C16.9338 29.9638 17.6123 30.314 18.3767 30.314H18.4769V30.4079C18.4769 32.6178 19.7737 34.5479 21.6903 35.5682V36.6434C21.6903 36.6838 21.6628 36.7197 21.6218 36.7325L18.9989 37.5522C17.7257 37.9501 16.8702 39.0628 16.8702 40.321V42.4582C16.8702 42.8222 17.185 43.1174 17.5734 43.1174C17.9617 43.1174 18.2765 42.8222 18.2765 42.4582V40.321C18.2765 39.6312 18.7455 39.021 19.4436 38.803L20.2149 38.5619C21.2352 39.9885 22.9514 40.858 24.8034 40.858C26.6574 40.858 28.3719 39.989 29.3921 38.562L30.1632 38.803C30.8613 39.0211 31.3303 39.6312 31.3303 40.321V42.4582C31.3303 42.8222 31.6451 43.1174 32.0334 43.1174C32.4218 43.1174 32.7366 42.8222 32.7366 42.4582V40.321C32.7366 39.0628 31.8811 37.9501 30.6079 37.5523L27.985 36.7326C27.944 36.7198 27.9165 36.684 27.9165 36.6435V35.5683C29.3515 34.8043 30.4377 33.5303 30.8933 32.0104C32.2221 33.3138 34.0779 34.0799 36.0501 34.0799C39.1637 34.0799 41.8957 32.1929 42.8368 29.4455L45.5208 30.452C46.1726 30.6964 46.5937 31.2796 46.5937 31.9377V35.0208H46.4935H43.9833V34.1737C43.9833 33.8097 43.6684 33.5145 43.2801 33.5145C42.8918 33.5145 42.577 33.8097 42.577 34.1737V42.4583C42.577 42.8223 42.8918 43.1174 43.2801 43.1174C43.6684 43.1174 43.9833 42.8223 43.9833 42.4583V36.3392H45.7904V42.4583C45.7904 42.8223 46.1052 43.1174 46.4935 43.1174C46.8818 43.1174 47.1967 42.8223 47.1967 42.4583V36.3392H47.2969C47.4833 36.3392 47.6621 36.2698 47.794 36.1462C47.9259 36.0225 48 35.8549 48 35.68V31.9377C48.0003 30.7373 47.2322 29.6736 46.0433 29.2278ZM27.9167 13.839C27.9167 9.63434 31.5654 6.21362 36.0504 6.21362C40.5353 6.21362 44.184 9.63434 44.184 13.839C44.184 18.2654 44.7526 22.7401 44.9374 24.0764C44.3073 24.4629 42.694 25.314 39.9669 25.8734V24.8244C40.3404 24.6259 40.698 24.3994 41.0341 24.1447C42.4177 23.0963 43.3954 21.6279 43.7869 20.0102C43.9174 19.4711 43.9836 18.9152 43.9836 18.3579C43.9836 14.6321 41.1095 14.0972 38.33 13.5799C36.5614 13.2507 34.7326 12.9103 33.2763 11.8181C33.0653 11.6598 32.7761 11.6289 32.5325 11.7387C32.2888 11.8485 32.1339 12.0794 32.1339 12.3329C32.1339 12.3504 32.1033 14.0848 29.4531 14.7059C29.0764 14.7943 28.8473 15.1521 28.9415 15.5054C29.0357 15.8586 29.4175 16.0732 29.7942 15.985C32.0123 15.4651 32.9172 14.2985 33.2862 13.4221C34.811 14.2692 36.519 14.587 38.0562 14.8731C41.027 15.426 42.5774 15.8322 42.5774 18.358C42.5774 18.8173 42.5229 19.275 42.4156 19.7185C42.0935 21.0487 41.2891 22.2565 40.1501 23.1196C38.9782 24.0076 37.5605 24.477 36.0504 24.477C34.6737 24.477 33.3636 24.0811 32.2517 23.3331C31.8443 22.2908 31.1901 21.3371 30.3267 20.5514V17.6048C30.3267 17.3763 30.2005 17.1642 29.9932 17.0441C29.786 16.924 29.5272 16.913 29.3091 17.0153L27.791 17.7268C27.8743 16.3541 27.9167 15.0489 27.9167 13.839ZM28.9205 18.6712V21.0569L26.3757 19.8641L28.9205 18.6712ZM20.6865 18.6712L23.2312 19.8641L20.6865 21.0569V18.6712ZM16.8702 25.8891V26.5152C16.3668 26.9227 16.0669 27.5191 16.0669 28.1484C15.0654 28.7031 13.9278 28.9956 12.7533 28.9956C9.69474 28.9956 7.04864 26.9778 6.38666 24.2258L8.12377 23.7372C8.5523 25.7664 10.4649 27.3014 12.7534 27.3014C14.5705 27.3014 16.15 26.3331 16.9385 24.9185C16.8934 25.2386 16.8702 25.5628 16.8702 25.8891ZM9.43974 22.8755V21.3486C10.4487 21.7854 11.5711 22.0295 12.7534 22.0295C13.9356 22.0295 15.058 21.7853 16.067 21.3486V22.8765C16.067 24.5894 14.5806 25.983 12.7534 25.983C10.9293 25.983 9.4449 24.5939 9.43993 22.8849C9.43993 22.8817 9.43974 22.8786 9.43974 22.8755ZM12.7534 20.7111C9.15427 20.7111 6.22635 17.9662 6.22635 14.5921C6.22635 14.2281 5.91153 13.9329 5.52322 13.9329C5.02503 13.9329 4.61965 13.5529 4.61965 13.0858C4.61965 12.6188 5.02494 12.2387 5.52322 12.2387H7.12992C7.43254 12.2387 7.70123 12.0572 7.79695 11.788L8.44233 9.9729C10.0581 9.93871 15.0671 9.72575 17.8878 8.40351C18.2351 8.24065 18.376 7.84479 18.2022 7.51915C18.0286 7.19351 17.6064 7.0615 17.2589 7.22436C14.2326 8.64293 7.9957 8.66103 7.93308 8.66103C7.63045 8.66112 7.36176 8.84262 7.26614 9.11183L6.6231 10.9205H5.52322C5.48966 10.9205 5.45628 10.9215 5.423 10.9228V7.81385C5.423 5.27037 7.63026 3.20106 10.3433 3.20106H16.7701C17.6097 3.20106 18.3151 3.7684 18.4476 4.54992C18.4812 4.74856 18.6098 4.92188 18.7966 5.02067C19.5905 5.44044 20.0837 6.22205 20.0837 7.06062V10.9226C20.0504 10.9212 20.0171 10.9203 19.9835 10.9203H19.1801C18.7918 10.9203 18.477 11.2154 18.477 11.5795C18.477 11.9435 18.7918 12.2386 19.1801 12.2386H19.9835C20.4817 12.2386 20.8871 12.6186 20.8871 13.0857C20.8871 13.5529 20.4818 13.9328 19.9835 13.9328C19.5952 13.9328 19.2804 14.228 19.2804 14.592C19.2804 17.9661 16.3524 20.7111 12.7534 20.7111ZM17.4731 22.8766V20.5642C18.1726 20.077 18.784 19.4853 19.2803 18.8127V20.5513C18.4929 21.268 17.8791 22.1241 17.4682 23.06C17.4709 22.9991 17.4731 22.9381 17.4731 22.8766ZM27.989 38.1234C27.2149 39.0099 26.0521 39.5396 24.8035 39.5396C23.5564 39.5396 22.3928 39.0096 21.6184 38.1233L22.0665 37.9833C22.6827 37.7908 23.0967 37.2523 23.0967 36.6435V36.1181C23.64 36.2611 24.2121 36.3392 24.8036 36.3392C25.3951 36.3392 25.9671 36.2611 26.5105 36.1181V36.6435C26.5104 37.2522 26.9243 37.7907 27.5405 37.9832L27.989 38.1234ZM30.427 28.9956C30.0387 28.9956 29.7239 29.2908 29.7239 29.6548V30.3102C29.7239 30.3159 29.7238 30.3216 29.7239 30.3273V30.4079C29.7238 32.9514 27.5165 35.0207 24.8035 35.0207C22.0904 35.0207 19.8833 32.9514 19.8833 30.4079V29.6548C19.8833 29.2908 19.5685 28.9956 19.1801 28.9956H18.3768C17.8786 28.9956 17.4732 28.6157 17.4732 28.1485C17.4732 27.8479 17.6429 27.5759 17.9271 27.4209C17.9905 27.3862 18.0458 27.3424 18.0936 27.2928C19.8317 27.2456 25.466 26.939 29.1691 24.9552C29.5062 24.7746 29.6234 24.3719 29.4307 24.0558C29.2381 23.7396 28.8084 23.6299 28.4714 23.8105C25.2274 25.5483 20.13 25.8962 18.2766 25.9657V25.8891C18.2766 24.6631 18.6726 23.4758 19.3901 22.4748C19.4463 22.5582 19.5214 22.6306 19.6138 22.6842C19.7268 22.7495 19.855 22.7826 19.9835 22.7826C20.0909 22.7826 20.1987 22.7595 20.2979 22.713L24.8036 20.601L29.3092 22.713C29.4085 22.7595 29.5162 22.7826 29.6237 22.7826C29.7523 22.7826 29.8805 22.7495 29.9933 22.6842C30.0857 22.6306 30.1608 22.5581 30.2169 22.4748C30.9345 23.4758 31.3305 24.6631 31.3305 25.8891V26.8512C31.3305 27.0858 31.4635 27.3028 31.68 27.4209C31.9643 27.576 32.1339 27.8479 32.1339 28.1485C32.1339 28.6156 31.7286 28.9956 31.2304 28.9956H30.427ZM36.0504 32.7613C34.1037 32.7613 32.2977 31.8322 31.2464 30.3136C32.5126 30.3055 33.5401 29.3375 33.5401 28.1486C33.5401 27.5193 33.2402 26.9228 32.7368 26.5152V25.8892C32.7368 25.6239 32.7215 25.36 32.6916 25.0986C33.7342 25.5569 34.8725 25.7952 36.0504 25.7952C36.9077 25.7952 37.7556 25.662 38.5606 25.4103V26.3756C38.5606 27.2662 39.1305 28.0554 40.0125 28.3862L41.5288 28.9548C40.8021 31.2072 38.583 32.7613 36.0504 32.7613Z" fill="#6A6A6A"/>
<path d="M26.8531 31.4021C26.5515 31.1728 26.1087 31.2161 25.8641 31.4989C25.5799 31.8273 25.2033 32.0081 24.8035 32.0081C24.4036 32.0081 24.0269 31.8273 23.7429 31.4989C23.4983 31.2162 23.0554 31.1728 22.7539 31.4021C22.4523 31.6314 22.4061 32.0466 22.6507 32.3293C23.1989 32.9629 23.9835 33.3264 24.8035 33.3264C25.6234 33.3264 26.408 32.963 26.9563 32.3294C27.2008 32.0466 27.1546 31.6314 26.8531 31.4021Z" fill="#6A6A6A"/>
<path d="M22.4063 29.5637C22.7946 29.5637 23.1094 29.2686 23.1094 28.9045C23.1094 28.5405 22.7946 28.2454 22.4063 28.2454C22.0179 28.2454 21.7031 28.5405 21.7031 28.9045C21.7031 29.2686 22.0179 29.5637 22.4063 29.5637Z" fill="#6A6A6A"/>
<path d="M27.1875 29.5637C27.5758 29.5637 27.8906 29.2686 27.8906 28.9045C27.8906 28.5405 27.5758 28.2454 27.1875 28.2454C26.7992 28.2454 26.4844 28.5405 26.4844 28.9045C26.4844 29.2686 26.7992 29.5637 27.1875 29.5637Z" fill="#6A6A6A"/>
</svg>
