<svg width="48" height="45" viewBox="0 0 48 45" fill="none" xmlns="http://www.w3.org/2000/svg">
<g clip-path="url(#clip0)">
<path d="M46.8001 19.485C46.7986 19.4839 46.7975 19.4826 46.7964 19.4815L27.2162 1.12576C26.3816 0.34298 25.272 -0.0878906 24.0917 -0.0878906C22.9114 -0.0878906 21.8017 0.34298 20.9668 1.12576L1.39678 19.4723C1.39019 19.4785 1.38323 19.485 1.377 19.4912C-0.336866 21.1072 -0.333936 23.7291 1.38543 25.341C2.17095 26.0778 3.20806 26.5042 4.31732 26.5492C4.36273 26.5533 4.40814 26.5554 4.45392 26.5554H5.23395V40.0638C5.23395 42.7372 7.55426 44.9122 10.406 44.9122H18.0664C18.8431 44.9122 19.4726 44.3217 19.4726 43.5938V33.003C19.4726 31.7832 20.5313 30.791 21.8325 30.791H26.3508C27.652 30.791 28.7103 31.7832 28.7103 33.003V43.5938C28.7103 44.3217 29.3398 44.9122 30.1166 44.9122H37.777C40.629 44.9122 42.949 42.7372 42.949 40.0638V26.5554H43.6726C44.8526 26.5554 45.9622 26.1245 46.7975 25.3414C48.5187 23.7271 48.5194 21.1003 46.8001 19.485ZM44.8086 23.4771C44.505 23.7618 44.1015 23.9187 43.6726 23.9187H41.5427C40.766 23.9187 40.1365 24.5088 40.1365 25.237V40.0638C40.1365 41.2833 39.0781 42.2755 37.777 42.2755H31.5228V33.003C31.5228 30.3295 29.2029 28.1542 26.3508 28.1542H21.8325C18.9804 28.1542 16.6601 30.3295 16.6601 33.003V42.2755H10.406C9.10517 42.2755 8.04645 41.2833 8.04645 40.0638V25.237C8.04645 24.5088 7.41693 23.9187 6.6402 23.9187H4.54693C4.52496 23.9173 4.50335 23.9163 4.48102 23.9159C4.06207 23.909 3.66912 23.7532 3.37469 23.4768C2.74847 22.8897 2.74847 21.9342 3.37469 21.3468C3.37506 21.3468 3.37506 21.3465 3.37542 21.3461L3.37652 21.3451L22.956 2.99C23.2593 2.70539 23.6625 2.54883 24.0917 2.54883C24.5205 2.54883 24.9237 2.70539 25.2273 2.99L44.8024 21.3413C44.8053 21.3441 44.8086 21.3468 44.8115 21.3496C45.4345 21.9377 45.4334 22.8911 44.8086 23.4771Z" fill="#6A6A6A"/>
</g>
<defs>
<clipPath id="clip0">
<rect width="48" height="45" fill="white"/>
</clipPath>
</defs>
</svg>
