<svg width="42" height="41" viewBox="0 0 42 41" fill="none" xmlns="http://www.w3.org/2000/svg">
<path d="M30.1875 33.3013V5.76562C30.186 5.25637 29.9781 4.76839 29.6092 4.40829C29.2403 4.04819 28.7404 3.84523 28.2188 3.84375H5.90625C5.38457 3.84523 4.88469 4.04819 4.51581 4.40829C4.14692 4.76839 3.93901 5.25637 3.9375 5.76562V33.9531C3.9401 34.8019 4.28663 35.6151 4.90142 36.2153C5.51622 36.8154 6.34931 37.1537 7.21875 37.1562H34.125" stroke="black" stroke-linejoin="round"/>
<path d="M34.125 37.1562C33.0807 37.1562 32.0792 36.7513 31.3408 36.0304C30.6023 35.3096 30.1875 34.3319 30.1875 33.3125V10.25H36.0938C36.6159 10.25 37.1167 10.4525 37.4859 10.8129C37.8551 11.1733 38.0625 11.6622 38.0625 12.1719V33.3125C38.0625 34.3319 37.6477 35.3096 36.9092 36.0304C36.1708 36.7513 35.1693 37.1562 34.125 37.1562Z" stroke="black" stroke-linejoin="round"/>
<path d="M19.6875 10.25H24.9375" stroke="black" stroke-linecap="round" stroke-linejoin="round"/>
<path d="M19.6875 15.375H24.9375" stroke="black" stroke-linecap="round" stroke-linejoin="round"/>
<path d="M9.1875 20.5H24.9375" stroke="black" stroke-linecap="round" stroke-linejoin="round"/>
<path d="M9.1875 25.625H24.9375" stroke="black" stroke-linecap="round" stroke-linejoin="round"/>
<path d="M9.1875 30.75H24.9375" stroke="black" stroke-linecap="round" stroke-linejoin="round"/>
<path d="M14.4375 16.6562H9.1875C8.8394 16.6562 8.50556 16.5213 8.25942 16.281C8.01328 16.0407 7.875 15.7148 7.875 15.375V10.25C7.875 9.91019 8.01328 9.5843 8.25942 9.34402C8.50556 9.10374 8.8394 8.96875 9.1875 8.96875H14.4375C14.7856 8.96875 15.1194 9.10374 15.3656 9.34402C15.6117 9.5843 15.75 9.91019 15.75 10.25V15.375C15.75 15.7148 15.6117 16.0407 15.3656 16.281C15.1194 16.5213 14.7856 16.6562 14.4375 16.6562Z" fill="black"/>
</svg>
