<svg width="42" height="42" viewBox="0 0 42 42" fill="none" xmlns="http://www.w3.org/2000/svg">
<path d="M37.9286 32.4683C36.8036 31.4654 35.8186 30.3156 35.0003 29.05C34.1069 27.3029 33.5714 25.3951 33.4253 23.4383V17.675C33.433 14.6015 32.3181 11.631 30.2901 9.3216C28.2621 7.01218 25.4606 5.5228 22.4119 5.1333V3.6283C22.4119 3.21523 22.2478 2.81907 21.9557 2.52698C21.6637 2.23489 21.2675 2.0708 20.8544 2.0708C20.4414 2.0708 20.0452 2.23489 19.7531 2.52698C19.461 2.81907 19.2969 3.21523 19.2969 3.6283V5.15663C16.2756 5.57422 13.5079 7.0726 11.5065 9.37426C9.50519 11.6759 8.40578 14.6249 8.41193 17.675V23.4383C8.26581 25.3951 7.73033 27.3029 6.83693 29.05C6.03296 30.3127 5.06382 31.4623 3.95526 32.4683C3.83081 32.5776 3.73108 32.7122 3.66268 32.8631C3.59429 33.0139 3.5588 33.1777 3.55859 33.3433V34.93C3.55859 35.2394 3.68151 35.5361 3.9003 35.7549C4.11909 35.9737 4.41584 36.0966 4.72526 36.0966H37.1586C37.468 36.0966 37.7648 35.9737 37.9836 35.7549C38.2023 35.5361 38.3253 35.2394 38.3253 34.93V33.3433C38.3251 33.1777 38.2896 33.0139 38.2212 32.8631C38.1528 32.7122 38.053 32.5776 37.9286 32.4683ZM5.98526 33.7633C7.07074 32.7147 8.02646 31.5396 8.83193 30.2633C9.95731 28.1534 10.6139 25.8253 10.7569 23.4383V17.675C10.7107 16.3077 10.94 14.9451 11.4313 13.6682C11.9226 12.3914 12.6658 11.2265 13.6167 10.243C14.5676 9.25935 15.7067 8.47716 16.9661 7.94295C18.2256 7.40874 19.5797 7.13344 20.9478 7.13344C22.3158 7.13344 23.6699 7.40874 24.9294 7.94295C26.1888 8.47716 27.3279 9.25935 28.2788 10.243C29.2297 11.2265 29.9729 12.3914 30.4642 13.6682C30.9555 14.9451 31.1849 16.3077 31.1386 17.675V23.4383C31.2816 25.8253 31.9382 28.1534 33.0636 30.2633C33.8691 31.5396 34.8248 32.7147 35.9103 33.7633H5.98526Z" fill="black"/>
<path d="M20.9997 39.9934C21.7346 39.9764 22.4399 39.7002 22.9907 39.2134C23.5416 38.7266 23.9025 38.0606 24.0097 37.3334H17.873C17.9833 38.0804 18.3611 38.762 18.9362 39.2513C19.5114 39.7406 20.2447 40.0043 20.9997 39.9934V39.9934Z" fill="black"/>
</svg>
