<svg width="63" height="60" viewBox="0 0 63 60" fill="none" xmlns="http://www.w3.org/2000/svg">
<path d="M40.3999 27.3476C42.5592 27.3476 44.3096 25.678 44.3096 23.6184C44.3096 21.5588 42.5592 19.8892 40.3999 19.8892C38.2407 19.8892 36.4902 21.5588 36.4902 23.6184C36.4902 25.678 38.2407 27.3476 40.3999 27.3476Z" fill="black"/>
<path d="M22.1548 27.3476C24.3141 27.3476 26.0645 25.678 26.0645 23.6184C26.0645 21.5588 24.3141 19.8892 22.1548 19.8892C19.9955 19.8892 18.2451 21.5588 18.2451 23.6184C18.2451 25.678 19.9955 27.3476 22.1548 27.3476Z" fill="black"/>
<path d="M31.2774 34.8063C25.2044 34.8063 20.0175 38.4112 17.9324 43.5078H22.2852C24.0836 40.5493 27.4199 38.5355 31.2774 38.5355C35.135 38.5355 38.4452 40.5493 40.2697 43.5078H44.6225C42.5373 38.4112 37.3504 34.8063 31.2774 34.8063ZM31.2514 4.97241C16.8637 4.97241 5.21289 16.1104 5.21289 29.834C5.21289 43.5575 16.8637 54.6955 31.2514 54.6955C45.665 54.6955 57.3419 43.5575 57.3419 29.834C57.3419 16.1104 45.665 4.97241 31.2514 4.97241ZM31.2774 49.7232C19.7569 49.7232 10.4258 40.8228 10.4258 29.834C10.4258 18.8452 19.7569 9.94472 31.2774 9.94472C42.7979 9.94472 52.129 18.8452 52.129 29.834C52.129 40.8228 42.7979 49.7232 31.2774 49.7232Z" fill="black"/>
</svg>
