<svg width="48" height="45" viewBox="0 0 48 45" fill="none" xmlns="http://www.w3.org/2000/svg">
<g clip-path="url(#clip0)">
<path d="M0.205719 44.8057C0.480744 45.0629 0.925692 45.0629 1.20035 44.8057L9.44121 37.0799L9.85283 37.4655C10.3146 37.8988 11.0137 38.0512 11.633 37.8514L13.9969 37.0889C15.2208 37.8994 16.9321 37.7992 18.0395 36.7613L37.2165 18.7828L37.4886 19.0379C38.1925 19.6975 39.3376 19.6978 40.0419 19.0379L40.6692 18.4495C41.373 17.7896 41.373 16.716 40.6692 16.0558C40.556 15.9497 39.784 15.226 38.7209 14.2297L40.24 12.8052C40.5146 12.5481 40.5146 12.1306 40.24 11.8731C39.9653 11.6156 39.52 11.6156 39.2457 11.8731L37.7267 13.2972C36.5171 12.1632 35.1207 10.8541 33.9115 9.72048L39.082 4.87275C40.4019 6.11009 42.0447 7.65024 42.8976 8.4495L41.566 9.69782C41.2914 9.95531 41.2914 10.3728 41.566 10.6299C41.8407 10.8874 42.286 10.8874 42.5603 10.6299L43.8918 9.38196L44.2914 9.75653C44.9971 10.4178 46.1389 10.4178 46.8446 9.75653L47.4719 9.16807C48.1758 8.50821 48.1758 7.43463 47.4719 6.77442L45.4669 4.89473C45.1923 4.63758 44.7473 4.63758 44.4727 4.89507C44.198 5.15256 44.198 5.5697 44.4727 5.82719L46.4777 7.70655C46.6329 7.85246 46.6333 8.09004 46.4777 8.23595L45.85 8.82406C45.6947 8.96998 45.4413 8.96998 45.286 8.82406L38.6825 2.6336C38.5268 2.48769 38.5272 2.25045 38.6825 2.10454L39.3102 1.51608C39.4658 1.37017 39.7178 1.36982 39.8745 1.51642L42.1523 3.6519C42.427 3.90904 42.8719 3.90939 43.1466 3.65155C43.4213 3.3944 43.4213 2.97692 43.1466 2.71943L40.8691 0.583957C40.1634 -0.0776275 39.0212 -0.0776275 38.3159 0.583957L37.6882 1.17207C36.9844 1.83228 36.9844 2.90585 37.6882 3.56572L38.0878 3.94029L32.9169 8.78801C31.8406 7.77864 31.0638 7.05045 30.969 6.96153C30.2633 6.30029 29.1214 6.29995 28.4157 6.96153L27.7884 7.54965C27.0827 8.21123 27.0827 9.28206 27.7884 9.9433L28.0601 10.1984C27.3438 10.8699 9.80779 27.31 8.88311 28.1769C7.74053 29.2484 7.679 30.8994 8.58464 32.0334L7.77641 34.2355C7.56365 34.8157 7.72514 35.4708 8.18767 35.9047L8.44695 36.1475L0.205719 43.8733C-0.0685731 44.1308 -0.0685731 44.5479 0.205719 44.8057ZM28.7827 8.48246L29.41 7.894C29.566 7.74774 29.8183 7.74809 29.9743 7.894C30.3442 8.24076 38.8997 16.2615 39.6749 16.9883C39.8302 17.1342 39.8306 17.3714 39.6749 17.5174L39.0472 18.1055C38.892 18.2514 38.6385 18.2514 38.4829 18.1055C38.202 17.8421 29.3159 9.5114 28.7823 9.01118C28.6267 8.86526 28.6263 8.62837 28.7827 8.48246ZM29.0544 11.1309L36.2223 17.8507L35.0303 18.9679L27.8628 12.2484L29.0544 11.1309ZM9.87774 29.1093L26.8685 13.1805L34.036 19.9L32.4195 21.4155L31.1748 20.2485C30.9001 19.9907 30.4548 19.991 30.1805 20.2482C29.9059 20.5056 29.9059 20.9231 30.1801 21.1806L31.4253 22.3476L29.7473 23.9207L28.5025 22.7534C28.2279 22.4959 27.7826 22.4959 27.5083 22.7534C27.2332 23.0109 27.2332 23.4284 27.5079 23.6855L28.753 24.8528L27.075 26.4259L25.8303 25.259C25.5556 25.0015 25.1103 25.0015 24.8357 25.2586C24.561 25.5161 24.561 25.9336 24.8357 26.1911L26.0804 27.3584L24.4028 28.9311L23.1577 27.7642C22.8834 27.5067 22.4381 27.5064 22.1634 27.7638C21.8888 28.0213 21.8888 28.4388 22.1634 28.6963L23.4082 29.8633L21.7305 31.4364L20.4854 30.2691C20.2111 30.0119 19.7658 30.0116 19.4912 30.2691C19.2165 30.5266 19.2165 30.9441 19.4912 31.2012L20.7359 32.3685L19.0579 33.9416L17.8132 32.7743C17.5385 32.5168 17.0932 32.5172 16.8189 32.7743C16.5443 33.0318 16.5443 33.4493 16.8189 33.7068L18.0637 34.8737L17.0449 35.8289C16.363 36.4681 15.2592 36.4692 14.5762 35.8299L9.87774 31.4247C9.19512 30.7851 9.19512 29.7493 9.87774 29.1093ZM9.10613 34.6643L9.67888 33.1032L12.8408 36.0675L11.1756 36.6044C11.0613 36.6412 10.9324 36.6134 10.8471 36.5334C9.39287 35.1697 10.2051 35.9315 9.18194 34.9723C9.09697 34.8923 9.06695 34.7714 9.10613 34.6643Z" fill="#6A6A6A"/>
<path d="M47.8399 31.0016L39.0566 27.0264C38.9787 26.9912 38.888 26.9912 38.8102 27.0264L30.0269 31.0016C29.9289 31.0459 29.8667 31.1389 29.8667 31.2408V40.8949C29.8667 40.9968 29.9289 41.0898 30.0269 41.1341L38.8102 45.1093C38.8491 45.1269 38.8912 45.1358 38.9334 45.1358C38.9755 45.1358 39.0176 45.1269 39.0566 45.1093L47.8399 41.1341C47.9378 41.0898 48 40.9968 48 40.8949V31.2409C48 31.1389 47.9378 31.046 47.8399 31.0016ZM38.9334 27.5607L47.0649 31.2408L44.7077 32.3077C44.6928 32.297 44.677 32.2872 44.6597 32.2793L36.5835 28.6242L38.9334 27.5607ZM35.9435 28.9246L44.0632 32.5994L42.4002 33.3521L34.2839 29.6787L35.9435 28.9246ZM44.2531 33.1034V35.8856L42.6998 36.5886V33.8064L44.2531 33.1034ZM47.4333 40.7282L39.2167 44.4468V35.3828L41.1766 34.4957C41.3176 34.432 41.3767 34.2732 41.3086 34.141C41.2406 34.0089 41.0712 33.9534 40.9302 34.0173L38.9334 34.9211L38.1476 34.5654C38.0067 34.5016 37.8373 34.557 37.7692 34.6891C37.7012 34.8213 37.7603 34.9801 37.9012 35.0439L38.65 35.3828V44.4468L30.4334 40.7281V31.6641L36.6903 34.4959C36.73 34.5138 36.772 34.5224 36.8133 34.5224C36.9186 34.5224 37.0198 34.467 37.0686 34.3721C37.1367 34.24 37.0776 34.0812 36.9367 34.0174L30.8019 31.2408L33.6169 29.9668L42.1291 33.8193C42.1304 33.821 42.1318 33.8224 42.133 33.824V37.0119C42.133 37.1033 42.1832 37.1883 42.2658 37.2369C42.3116 37.2639 42.364 37.2776 42.4165 37.2776C42.4585 37.2776 42.5006 37.2688 42.5396 37.2511L44.6597 36.2916C44.7577 36.2473 44.8199 36.1544 44.8199 36.0524V32.8469L47.4333 31.6641V40.7282Z" fill="#6A6A6A"/>
</g>
<defs>
<clipPath id="clip0">
<rect width="48" height="45" fill="white"/>
</clipPath>
</defs>
</svg>
