<svg width="23" height="28" viewBox="0 0 23 28" fill="none" xmlns="http://www.w3.org/2000/svg">
<path d="M23 8.4L14.375 0H2.875C2.1125 0 1.38123 0.294999 0.842068 0.820101C0.302901 1.3452 0 2.05739 0 2.8V25.2C0 25.9426 0.302901 26.6548 0.842068 27.1799C1.38123 27.705 2.1125 28 2.875 28H20.125C20.8875 28 21.6188 27.705 22.1579 27.1799C22.6971 26.6548 23 25.9426 23 25.2V8.4ZM7.1875 23.8H4.3125V11.2H7.1875V23.8ZM12.9375 23.8H10.0625V15.4H12.9375V23.8ZM18.6875 23.8H15.8125V19.6H18.6875V23.8ZM14.375 9.8H12.9375V2.8L20.125 9.8H14.375Z" fill="black"/>
</svg>
