<svg width="48" height="45" viewBox="0 0 48 45" fill="none" xmlns="http://www.w3.org/2000/svg">
<g clip-path="url(#clip0)">
<path d="M25.5062 45H22.4937C20.0572 45 18.0749 43.1416 18.0749 40.8575V39.902C17.0391 39.5917 16.0327 39.2001 15.0658 38.731L14.3436 39.4081C12.5943 41.0501 9.79219 41.0019 8.09372 39.4075L5.96456 37.4115C4.26309 35.8182 4.21416 33.1921 5.96513 31.5523L6.68681 30.8757C6.18647 29.9693 5.76881 29.026 5.43778 28.0547H4.41872C1.98234 28.0547 0 26.1963 0 23.9121V21.0879C0 18.8037 1.98234 16.9453 4.41881 16.9453H5.43788C5.76891 15.9741 6.18656 15.0307 6.68691 14.1243L5.96466 13.4473C4.21472 11.8085 4.263 9.18211 5.96522 7.58804L8.09456 5.59187C9.79697 3.99366 12.5984 3.95376 14.3443 5.59239L15.0659 6.26889C16.0328 5.7999 17.0392 5.40826 18.075 5.09792V4.14255C18.075 1.85836 20.0573 0 22.4938 0H25.5063C27.9427 0 29.925 1.85836 29.925 4.14255V5.09801C30.9608 5.40826 31.9672 5.7999 32.9341 6.26897L33.6563 5.59187C35.4056 3.94989 38.2077 3.99806 39.9062 5.59248L42.0353 7.58848C43.7368 9.18185 43.7858 11.8079 42.0348 13.4477L41.3131 14.1243C41.8134 15.0307 42.2311 15.974 42.5621 16.9453H43.5812C46.0177 16.9453 48 18.8037 48 21.0879V23.9121C48 26.1963 46.0177 28.0547 43.5812 28.0547H42.5621C42.2311 29.0259 41.8134 29.9693 41.3131 30.8757L42.0353 31.5528C43.7853 33.1916 43.737 35.818 42.0348 37.412L39.9054 39.4082C38.203 41.0064 35.4016 41.0463 33.6557 39.4077L32.9341 38.7312C31.9672 39.2002 30.9608 39.5918 29.925 39.9022V40.8576C29.925 43.1416 27.9428 45 25.5062 45ZM15.536 35.9622C16.8791 36.7069 18.3248 37.2695 19.8326 37.6343C20.4536 37.7845 20.8875 38.3096 20.8875 38.9109V40.8575C20.8875 41.6878 21.6082 42.3633 22.4938 42.3633H25.5063C26.3919 42.3633 27.1126 41.6878 27.1126 40.8575V38.9109C27.1126 38.3096 27.5465 37.7845 28.1675 37.6343C29.6753 37.2695 31.121 36.7069 32.4641 35.9622C33.0168 35.6558 33.7204 35.7391 34.1744 36.1648L35.6452 37.5437C36.2793 38.1389 37.2976 38.1251 37.9162 37.5443L40.0468 35.5469C40.6639 34.9691 40.6845 34.0143 40.0474 33.4178L38.576 32.0383C38.122 31.6128 38.0332 30.9531 38.3599 30.435C39.1542 29.1759 39.7542 27.8206 40.1434 26.4069C40.3037 25.8247 40.8638 25.4181 41.505 25.4181H43.5813C44.4669 25.4181 45.1876 24.7425 45.1876 23.9122V21.0879C45.1876 20.2576 44.4669 19.5821 43.5813 19.5821H41.505C40.8637 19.5821 40.3037 19.1754 40.1434 18.5933C39.7542 17.1795 39.1541 15.8243 38.3599 14.5651C38.0332 14.0471 38.122 13.3874 38.576 12.9618L40.0468 11.5829C40.6826 10.9876 40.666 10.0331 40.0474 9.45378L37.9169 7.45646C37.2994 6.87674 36.2809 6.85978 35.6458 7.45594L34.1745 8.83538C33.7206 9.26103 33.0167 9.34436 32.4642 9.03797C31.1211 8.29327 29.6754 7.73068 28.1676 7.36585C27.5466 7.21564 27.1127 6.69059 27.1127 6.08933V4.14255C27.1127 3.31225 26.392 2.63672 25.5064 2.63672H22.4939C21.6082 2.63672 20.8876 3.31225 20.8876 4.14255V6.08915C20.8876 6.69041 20.4537 7.21547 19.8327 7.36567C18.3248 7.73051 16.8792 8.2931 15.5361 9.03779C14.9833 9.34409 14.2797 9.26077 13.8258 8.83521L12.355 7.45629C11.7209 6.86109 10.7025 6.87489 10.084 7.45567L7.95337 9.45308C7.33631 10.0309 7.31569 10.9856 7.95281 11.5822L9.42422 12.9617C9.87816 13.3872 9.96703 14.0469 9.64031 14.565C8.84597 15.8241 8.24597 17.1794 7.85681 18.5931C7.6965 19.1753 7.13644 19.5819 6.49519 19.5819H4.41881C3.53316 19.582 2.8125 20.2576 2.8125 21.0879V23.9121C2.8125 24.7424 3.53316 25.418 4.41881 25.418H6.49509C7.13644 25.418 7.69641 25.8247 7.85672 26.4068C8.24588 27.8205 8.84597 29.1758 9.64022 30.4349C9.96694 30.953 9.87806 31.6127 9.42413 32.0382L7.95328 33.4172C7.31747 34.0125 7.33406 34.967 7.95272 35.5463L10.0832 37.5436C10.7007 38.1233 11.7192 38.1403 12.3543 37.5442L13.8256 36.1647C14.1601 35.8512 14.856 35.5852 15.536 35.9622Z" fill="#6A6A6A"/>
<path d="M23.9999 32.291C18.2411 32.291 13.5562 27.8988 13.5562 22.5C13.5562 17.1012 18.2411 12.709 23.9999 12.709C29.7587 12.709 34.4437 17.1012 34.4437 22.5C34.4437 27.8988 29.7587 32.291 23.9999 32.291ZM23.9999 15.3457C19.7919 15.3457 16.3687 18.5551 16.3687 22.5C16.3687 26.4449 19.792 29.6543 23.9999 29.6543C28.2078 29.6543 31.6312 26.4449 31.6312 22.5C31.6312 18.5551 28.2079 15.3457 23.9999 15.3457Z" fill="#6A6A6A"/>
</g>
<defs>
<clipPath id="clip0">
<rect width="48" height="45" fill="white"/>
</clipPath>
</defs>
</svg>
