<svg width="48" height="45" viewBox="0 0 48 45" fill="none" xmlns="http://www.w3.org/2000/svg">
<path d="M38.0345 16.2114C35.8876 10.8984 30.4173 7.11914 24.0095 7.11914C17.6017 7.11914 12.1314 10.894 9.98451 16.207C5.94857 17.2046 2.9767 20.6631 3.00014 24.7676C3.02826 29.3555 6.82514 33.0864 11.6064 33.4863C11.8267 33.5039 12.0142 33.3413 12.0142 33.1348V30.4805C12.0142 30.3047 11.8736 30.1553 11.6861 30.1333C10.4204 29.9839 9.22514 29.4653 8.30639 28.6172C7.18139 27.5845 6.56264 26.1958 6.56264 24.7236C6.56264 23.4932 6.9892 22.333 7.79076 21.3662C8.57358 20.4258 9.67514 19.7446 10.8892 19.4458L12.6658 19.0063L13.3173 17.3936C13.7205 16.3916 14.2829 15.4512 14.9908 14.603C15.6892 13.7593 16.5189 13.021 17.447 12.4058C19.3736 11.1357 21.6423 10.4634 24.0095 10.4634C26.3767 10.4634 28.6455 11.1357 30.572 12.4102C31.5048 13.0254 32.3298 13.7637 33.0283 14.6074C33.7361 15.4556 34.2986 16.396 34.7017 17.3979L35.3486 19.0063L37.1205 19.4458C39.6611 20.0786 41.4376 22.2451 41.4376 24.7192C41.4376 26.1958 40.8189 27.5801 39.6939 28.6128C38.7798 29.4565 37.5892 29.9795 36.3236 30.1289C36.1361 30.1509 36.0001 30.3003 36.0001 30.4761V33.1348C36.0001 33.3413 36.1923 33.5039 36.4126 33.4863C41.1798 33.082 44.9673 29.3555 45.0001 24.7764C45.0283 20.6719 42.0611 17.2134 38.0345 16.2114V16.2114Z" fill="#6A6A6A"/>
<path d="M17.6673 28.8457C17.7516 27.3735 18.4032 26.0024 19.5188 24.9521C20.7095 23.8315 22.3313 23.2031 24.0188 23.2031C25.7157 23.2031 27.3141 23.8228 28.5188 24.9521C28.5845 25.0137 28.6454 25.0752 28.711 25.1411L27.5391 26.0024C27.4833 26.0429 27.4408 26.0974 27.4165 26.1595C27.3922 26.2216 27.3871 26.2889 27.4018 26.3537C27.4165 26.4184 27.4504 26.4779 27.4995 26.5254C27.5487 26.5729 27.6112 26.6064 27.6798 26.6221L32.2829 27.6768C32.5173 27.7295 32.747 27.5625 32.747 27.3384L32.7704 22.8867C32.7704 22.5923 32.4141 22.4253 32.1657 22.6099L31.0782 23.4097C29.3626 21.564 26.8407 20.395 24.0235 20.395C18.9891 20.395 14.8829 24.1348 14.6766 28.8193C14.6673 29.0171 14.836 29.1841 15.0516 29.1841H17.297C17.4938 29.1797 17.6579 29.0347 17.6673 28.8457V28.8457ZM32.9532 29.1797H30.7079C30.511 29.1797 30.347 29.3247 30.3329 29.5137C30.2485 30.9858 29.597 32.3569 28.4813 33.4072C27.2907 34.5278 25.6688 35.1562 23.9813 35.1562C22.2845 35.1562 20.686 34.5366 19.4813 33.4072C19.4157 33.3457 19.3548 33.2842 19.2891 33.2183L20.461 32.3569C20.5168 32.3164 20.5594 32.262 20.5837 32.1999C20.6079 32.1377 20.613 32.0704 20.5984 32.0057C20.5837 31.941 20.5498 31.8814 20.5006 31.834C20.4514 31.7865 20.389 31.753 20.3204 31.7373L15.7173 30.6826C15.4829 30.6299 15.2532 30.7969 15.2532 31.021L15.2345 35.477C15.2345 35.7715 15.5907 35.9385 15.8391 35.7539L16.9266 34.9541C18.6423 36.7998 21.1641 37.9687 23.9813 37.9687C29.0157 37.9687 33.122 34.229 33.3282 29.5444C33.3376 29.3467 33.1688 29.1797 32.9532 29.1797Z" fill="#6A6A6A"/>
</svg>
