<svg width="37" height="20" viewBox="0 0 37 20" fill="none" xmlns="http://www.w3.org/2000/svg">
<path fill-rule="evenodd" clip-rule="evenodd" d="M17.2874 0.413138C17.418 0.282179 17.5732 0.178277 17.7441 0.107384C17.9149 0.0364904 18.0981 0 18.283 0C18.468 0 18.6511 0.0364904 18.822 0.107384C18.9928 0.178277 19.148 0.282179 19.2787 0.413138L36.1537 17.2881C36.4177 17.5522 36.5661 17.9103 36.5661 18.2838C36.5661 18.6572 36.4177 19.0153 36.1537 19.2794C35.8896 19.5434 35.5315 19.6918 35.158 19.6918C34.7846 19.6918 34.4265 19.5434 34.1624 19.2794L18.283 3.3972L2.40365 19.2794C2.1396 19.5434 1.78146 19.6918 1.40803 19.6918C1.03459 19.6918 0.676458 19.5434 0.412401 19.2794C0.148345 19.0153 0 18.6572 0 18.2838C0 17.9103 0.148345 17.5522 0.412401 17.2881L17.2874 0.413138V0.413138Z" fill="#6A6A6A"/>
</svg>
