<svg width="48" height="45" viewBox="0 0 48 45" fill="none" xmlns="http://www.w3.org/2000/svg">
<path d="M0.205719 44.8057C0.480744 45.0629 0.925692 45.0629 1.20035 44.8057L9.44121 37.0799L9.85283 37.4655C10.3146 37.8988 11.0137 38.0512 11.633 37.8514L13.9969 37.0889C15.2208 37.8994 16.9321 37.7992 18.0395 36.7613L37.2165 18.7828L37.4886 19.0379C38.1925 19.6975 39.3376 19.6978 40.0419 19.0379L40.6692 18.4495C41.373 17.7896 41.373 16.716 40.6692 16.0558C40.556 15.9497 39.784 15.226 38.7209 14.2297L40.24 12.8052C40.5146 12.5481 40.5146 12.1306 40.24 11.8731C39.9653 11.6156 39.52 11.6156 39.2457 11.8731L37.7267 13.2972C36.5171 12.1632 35.1207 10.8541 33.9115 9.72048L39.082 4.87275C40.4019 6.11009 42.0447 7.65024 42.8976 8.4495L41.566 9.69782C41.2914 9.95531 41.2914 10.3728 41.566 10.6299C41.8407 10.8874 42.286 10.8874 42.5603 10.6299L43.8918 9.38196L44.2914 9.75653C44.9971 10.4178 46.1389 10.4178 46.8446 9.75653L47.4719 9.16807C48.1758 8.50821 48.1758 7.43463 47.4719 6.77442L45.4669 4.89473C45.1923 4.63758 44.7473 4.63758 44.4727 4.89507C44.198 5.15256 44.198 5.5697 44.4727 5.82719L46.4777 7.70655C46.6329 7.85246 46.6333 8.09004 46.4777 8.23595L45.85 8.82406C45.6947 8.96998 45.4413 8.96998 45.286 8.82406L38.6825 2.6336C38.5268 2.48769 38.5272 2.25045 38.6825 2.10454L39.3102 1.51608C39.4658 1.37017 39.7178 1.36982 39.8745 1.51642L42.1523 3.6519C42.427 3.90904 42.8719 3.90939 43.1466 3.65155C43.4213 3.3944 43.4213 2.97692 43.1466 2.71943L40.8691 0.583957C40.1634 -0.0776275 39.0212 -0.0776275 38.3159 0.583957L37.6882 1.17207C36.9844 1.83228 36.9844 2.90585 37.6882 3.56572L38.0878 3.94029L32.9169 8.78801C31.8406 7.77864 31.0638 7.05045 30.969 6.96153C30.2633 6.30029 29.1214 6.29995 28.4157 6.96153L27.7884 7.54965C27.0827 8.21123 27.0827 9.28206 27.7884 9.9433L28.0602 10.1984C27.3438 10.8699 9.80779 27.31 8.88311 28.1769C7.74053 29.2484 7.679 30.8994 8.58464 32.0334L7.77641 34.2355C7.56365 34.8157 7.72514 35.4708 8.18767 35.9047L8.44695 36.1475L0.205719 43.8733C-0.0685731 44.1308 -0.0685731 44.5479 0.205719 44.8057ZM28.7827 8.48246L29.41 7.894C29.566 7.74774 29.8183 7.74809 29.9743 7.894C30.3442 8.24076 38.8997 16.2615 39.6749 16.9883C39.8302 17.1342 39.8306 17.3714 39.6749 17.5174L39.0472 18.1055C38.892 18.2514 38.6385 18.2514 38.4829 18.1055C38.202 17.8421 29.3159 9.5114 28.7823 9.01118C28.6267 8.86526 28.6263 8.62837 28.7827 8.48246ZM29.0544 11.1309L36.2223 17.8507L35.0303 18.9679L27.8628 12.2484L29.0544 11.1309ZM9.87774 29.1093L26.8685 13.1805L34.036 19.9L32.4195 21.4155L31.1748 20.2485C30.9001 19.9907 30.4548 19.991 30.1805 20.2482C29.9059 20.5056 29.9059 20.9231 30.1801 21.1806L31.4253 22.3476L29.7473 23.9207L28.5025 22.7534C28.2279 22.4959 27.7826 22.4959 27.5083 22.7534C27.2332 23.0109 27.2332 23.4284 27.5079 23.6855L28.753 24.8528L27.075 26.4259L25.8303 25.259C25.5556 25.0015 25.1103 25.0015 24.8357 25.2586C24.561 25.5161 24.561 25.9336 24.8357 26.1911L26.0804 27.3584L24.4028 28.9311L23.1577 27.7642C22.8834 27.5067 22.4381 27.5064 22.1634 27.7638C21.8888 28.0213 21.8888 28.4388 22.1634 28.6963L23.4082 29.8633L21.7305 31.4364L20.4854 30.2691C20.2111 30.0119 19.7658 30.0116 19.4912 30.2691C19.2165 30.5266 19.2165 30.9441 19.4912 31.2012L20.7359 32.3685L19.0579 33.9416L17.8132 32.7743C17.5385 32.5168 17.0932 32.5172 16.8189 32.7743C16.5443 33.0318 16.5443 33.4493 16.8189 33.7068L18.0637 34.8737L17.0449 35.8289C16.363 36.4681 15.2592 36.4692 14.5762 35.8299L9.87774 31.4247C9.19512 30.7851 9.19512 29.7493 9.87774 29.1093ZM9.10613 34.6643L9.67888 33.1032L12.8408 36.0675L11.1756 36.6044C11.0613 36.6412 10.9324 36.6134 10.8471 36.5334C9.39287 35.1697 10.2051 35.9315 9.18194 34.9723C9.09697 34.8923 9.06694 34.7714 9.10613 34.6643Z" fill="#6A6A6A"/>
</svg>
