<svg width="31" height="33" viewBox="0 0 31 33" fill="none" xmlns="http://www.w3.org/2000/svg">
<path d="M22.3889 24.75V19.8H10.3333V13.2H22.3889V8.25L31 16.5L22.3889 24.75ZM18.9444 0C19.858 0 20.7341 0.347677 21.38 0.966547C22.026 1.58542 22.3889 2.42479 22.3889 3.3V6.6H18.9444V3.3H3.44444V29.7H18.9444V26.4H22.3889V29.7C22.3889 30.5752 22.026 31.4146 21.38 32.0335C20.7341 32.6523 19.858 33 18.9444 33H3.44444C2.53092 33 1.65481 32.6523 1.00885 32.0335C0.362896 31.4146 0 30.5752 0 29.7V3.3C0 2.42479 0.362896 1.58542 1.00885 0.966547C1.65481 0.347677 2.53092 0 3.44444 0H18.9444Z" fill="black"/>
</svg>
