<?xml version="1.0" encoding="UTF-8"?>
<svg xmlns="http://www.w3.org/2000/svg" xmlns:xlink="http://www.w3.org/1999/xlink" width="224.87999pt" height="225pt" viewBox="0 0 224.87999 225" version="1.2">
<defs>
<clipPath id="clip1">
  <path d="M 10.132812 14.761719 L 214.773438 14.761719 L 214.773438 219.402344 L 10.132812 219.402344 Z M 10.132812 14.761719 "/>
</clipPath>
</defs>
<g id="surface1">
<g clip-path="url(#clip1)" clip-rule="nonzero">
<path style=" stroke:none;fill-rule:evenodd;fill:rgb(13.328552%,49.798584%,73.329163%);fill-opacity:1;" d="M 214.808594 117.097656 C 214.808594 173.597656 168.96875 219.4375 112.46875 219.4375 C 55.96875 219.4375 10.132812 173.597656 10.132812 117.097656 C 10.132812 60.597656 55.96875 14.761719 112.46875 14.761719 C 168.96875 14.761719 214.808594 60.597656 214.808594 117.097656 Z M 214.808594 117.097656 "/>
</g>
<path style=" stroke:none;fill-rule:evenodd;fill:rgb(100%,100%,100%);fill-opacity:1;" d="M 37.460938 154.359375 C 51.171875 181.882812 79.617188 200.828125 112.46875 200.828125 C 145.371094 200.828125 173.8125 181.882812 187.527344 154.3125 C 188.980469 151.308594 158.695312 126.402344 112.46875 126.402344 C 66.242188 126.402344 35.957031 151.308594 37.460938 154.359375 Z M 37.460938 154.359375 "/>
<path style=" stroke:none;fill-rule:evenodd;fill:rgb(100%,100%,100%);fill-opacity:1;" d="M 149.683594 70.582031 C 149.683594 91.125 133.015625 107.796875 112.46875 107.796875 C 91.925781 107.796875 75.253906 91.125 75.253906 70.582031 C 75.253906 50.035156 91.925781 33.367188 112.46875 33.367188 C 133.015625 33.367188 149.683594 50.035156 149.683594 70.582031 Z M 149.683594 70.582031 "/>
</g>
</svg>
